<svg width="460" height="292" viewBox="0 0 460 292" fill="none" xmlns="http://www.w3.org/2000/svg">
<path d="M450.051 145.126C450.258 144.926 450.468 144.731 450.67 144.525C456.184 139.121 459.218 131.851 459.218 124.041C459.218 108.033 446.194 95.01 430.187 95.01H427.548V50.144C427.548 22.495 405.053 0 377.404 0H319.344H205.857H190.021H81.815C54.166 0 31.671 22.495 31.671 50.144V95.01H29.032C21.222 95.01 13.952 98.044 8.549 103.557C3.035 108.961 0.000999451 116.231 0.000999451 124.041C0.000999451 132.369 3.531 139.883 9.167 145.183C8.96 145.383 8.75 145.578 8.548 145.784C3.034 151.188 0 158.458 0 166.268C0 182.276 13.024 195.299 29.031 195.299H31.67V240.165C31.67 253.428 36.855 265.497 45.294 274.474C45.294 274.474 55 287.5 65.217 290.309C75.434 293.118 377.402 290.309 377.402 290.309C405.051 290.309 427.546 267.814 427.546 240.165V195.299H430.185C437.995 195.299 445.265 192.265 450.668 186.752C456.183 181.348 459.217 174.077 459.217 166.268C459.217 157.939 455.687 150.425 450.051 145.126Z" fill="black"/>
</svg>
